<svg xmlns="http://www.w3.org/2000/svg" version="1.1" xmlns:xlink="http://www.w3.org/1999/xlink" xmlns:svgjs="http://svgjs.dev/svgjs" width="2000" height="2655" viewBox="0 0 2000 2655"><g transform="matrix(1,0,0,1,-0.5933316390083974,1.0748987854251482)"><svg viewBox="0 0 186 247" data-background-color="#ffffff" preserveAspectRatio="xMidYMid meet" height="2655" width="2000" xmlns="http://www.w3.org/2000/svg" xmlns:xlink="http://www.w3.org/1999/xlink"><g id="tight-bounds" transform="matrix(1,0,0,1,0.05517984242777629,-0.09999999999999432)"><svg viewBox="0 0 185.88964031514445 247.2" height="247.2" width="185.88964031514445"><g><svg viewBox="0 0 395.52 525.9709138940889" height="247.2" width="185.88964031514445"><g transform="matrix(1,0,0,1,0,390.88853189267337)"><svg viewBox="0 0 395.52 135.08238200141554" height="135.08238200141554" width="395.52"><g id="textblocktransform"><svg viewBox="0 0 395.52 135.08238200141554" height="135.08238200141554" width="395.52" id="textblock"><g><svg viewBox="0 0 395.52 74.21689642640823" height="74.21689642640823" width="395.52"><g transform="matrix(1,0,0,1,0,0)"><svg width="395.52" viewBox="1.33 -37.88 206.35999999999999 38.730000000000004" height="74.21689642640823" data-palette-color="#6b7280"><path d="M23.13-27.43L23.13-27.43Q25.03-27.43 26.25-26.63 27.48-25.83 28.08-24.11 28.68-22.4 28.68-19.65L28.68-19.65 28.68 0 21.9 0 21.9-18.75Q21.9-20.15 21.64-20.73 21.38-21.3 20.58-21.3L20.58-21.3Q19.95-21.3 19.29-20.94 18.63-20.58 17.82-19.58L17.82-19.58 17.82 0 12.28 0 12.28-18.75Q12.28-20.15 12.01-20.73 11.75-21.3 10.95-21.3L10.95-21.3Q10.33-21.3 9.66-20.94 9-20.58 8.2-19.58L8.2-19.58 8.2 0 1.33 0 1.33-26.55 7.13-26.55 7.65-23.98Q8.9-25.68 10.18-26.55 11.45-27.43 13.2-27.43L13.2-27.43Q14.7-27.43 15.76-26.66 16.82-25.9 17.28-24.28L17.28-24.28Q18.48-25.68 19.93-26.55 21.38-27.43 23.13-27.43ZM33.5-26.55L41.4-26.55 41.4-8.38Q41.4-6.45 42.11-5.73 42.82-5 44.1-5L44.1-5Q45.32-5 46.55-5.78 47.77-6.55 48.6-7.88L48.6-7.88 48.6-26.55 56.5-26.55 56.5 0 49.6 0 49.25-3.1Q47.9-1.15 45.7-0.15 43.5 0.85 41.1 0.85L41.1 0.85Q37.25 0.85 35.37-1.39 33.5-3.63 33.5-7.4L33.5-7.4 33.5-26.55ZM74.15-4.8L74.15-4.8Q76.12-4.8 77.33-5.43 78.55-6.05 78.55-7.3L78.55-7.3Q78.55-8.15 78.07-8.72 77.59-9.3 76.25-9.83 74.9-10.35 72.25-11.08L72.25-11.08Q69.82-11.73 67.96-12.73 66.09-13.73 65.06-15.3 64.02-16.88 64.02-19.23L64.02-19.23Q64.02-21.6 65.34-23.45 66.67-25.3 69.25-26.36 71.82-27.43 75.55-27.43L75.55-27.43Q79.09-27.43 81.73-26.51 84.37-25.6 86.3-24.2L86.3-24.2 83.15-19.55Q81.5-20.58 79.59-21.19 77.7-21.8 75.77-21.8L75.77-21.8Q73.84-21.8 72.91-21.29 71.97-20.78 71.97-19.75L71.97-19.75Q71.97-19.07 72.46-18.59 72.95-18.1 74.3-17.59 75.65-17.07 78.25-16.32L78.25-16.32Q80.82-15.6 82.73-14.65 84.65-13.7 85.7-12.11 86.75-10.53 86.75-7.93L86.75-7.93Q86.75-5.03 85.02-3.06 83.3-1.1 80.45-0.13 77.59 0.85 74.2 0.85L74.2 0.85Q70.34 0.85 67.4-0.25 64.45-1.35 62.37-3.15L62.37-3.15 66.34-7.6Q67.9-6.4 69.86-5.6 71.82-4.8 74.15-4.8ZM93.49-37.1L101.39-37.88 101.39-23.93Q103.07-25.7 105.03-26.56 106.99-27.43 109.19-27.43L109.19-27.43Q112.74-27.43 114.62-25.35 116.49-23.28 116.49-19.5L116.49-19.5 116.49 0 108.59 0 108.59-17.3Q108.59-19.7 108.06-20.65 107.52-21.6 106.04-21.6L106.04-21.6Q105.22-21.6 104.43-21.21 103.64-20.83 102.89-20.1 102.14-19.38 101.39-18.38L101.39-18.38 101.39 0 93.49 0 93.49-37.1ZM145.84-18.05L145.84-7.65Q145.84-6.15 146.25-5.48 146.67-4.8 147.59-4.45L147.59-4.45 145.97 0.75Q143.62 0.53 142-0.29 140.39-1.1 139.47-2.75L139.47-2.75Q137.94-0.93 135.56-0.04 133.19 0.85 130.72 0.85L130.72 0.85Q126.62 0.85 124.18-1.49 121.74-3.83 121.74-7.5L121.74-7.5Q121.74-11.83 125.13-14.18 128.52-16.53 134.67-16.53L134.67-16.53 138.24-16.53 138.24-17.53Q138.24-19.6 136.9-20.6 135.56-21.6 132.99-21.6L132.99-21.6Q131.72-21.6 129.72-21.24 127.72-20.88 125.72-20.2L125.72-20.2 123.89-25.45Q126.47-26.43 129.25-26.93 132.04-27.43 134.24-27.43L134.24-27.43Q140.17-27.43 143-25.01 145.84-22.6 145.84-18.05L145.84-18.05ZM133.44-4.8L133.44-4.8Q134.72-4.8 136.12-5.56 137.52-6.33 138.24-7.73L138.24-7.73 138.24-12.03 136.29-12.03Q132.99-12.03 131.44-11.01 129.89-10 129.89-8.05L129.89-8.05Q129.89-6.53 130.83-5.66 131.77-4.8 133.44-4.8ZM170.39 0L153.74 0 153.74-5.3 157.24-5.3 157.24-21.3 153.74-21.3 153.74-26.55 163.26-26.55 164.71-20.58Q166.14-24 168.35-25.68 170.56-27.35 173.76-27.35L173.76-27.35Q175.11-27.35 176.16-27.14 177.21-26.93 178.14-26.55L178.14-26.55 175.74-20.03Q175.01-20.23 174.29-20.33 173.56-20.43 172.69-20.43L172.69-20.43Q170.09-20.43 168.13-18.3 166.16-16.18 165.14-12.9L165.14-12.9 165.14-5.3 170.39-5.3 170.39 0ZM176.66-15.45L171.71-15.45 171.71-23.2 172.89-26.55 178.14-26.55 176.66-15.45ZM207.54-10.98L190.34-10.98Q190.61-8.8 191.47-7.46 192.34-6.13 193.69-5.51 195.04-4.9 196.71-4.9L196.71-4.9Q198.54-4.9 200.24-5.5 201.94-6.1 203.51-7.1L203.51-7.1 206.69-2.8Q204.81-1.2 202.15-0.18 199.49 0.85 196.09 0.85L196.09 0.85Q191.54 0.85 188.46-0.96 185.39-2.78 183.84-5.95 182.29-9.13 182.29-13.25L182.29-13.25Q182.29-17.18 183.79-20.39 185.29-23.6 188.17-25.51 191.06-27.43 195.24-27.43L195.24-27.43Q199.04-27.43 201.82-25.8 204.61-24.18 206.15-21.13 207.69-18.07 207.69-13.8L207.69-13.8Q207.69-13.13 207.65-12.35 207.61-11.58 207.54-10.98L207.54-10.98ZM195.24-22.13L195.24-22.13Q193.11-22.13 191.81-20.6 190.51-19.07 190.24-15.73L190.24-15.73 199.99-15.73Q199.96-18.63 198.86-20.38 197.76-22.13 195.24-22.13Z" opacity="1" transform="matrix(1,0,0,1,0,0)" fill="#ffffff" class="wordmark-text-0" data-fill-palette-color="primary" id="text-0"></path></svg></g></svg></g><g transform="matrix(1,0,0,1,0,91.73772446716897)"><svg viewBox="0 0 395.52 43.344657534246565" height="43.344657534246565" width="395.52"><g transform="matrix(1,0,0,1,0,0)"><svg width="395.52" viewBox="0.9 -36.6 419.70000000000005 46" height="43.344657534246565" data-palette-color="#97978d"><path d="M7.85 0L0.9 0 5.5-26.3 11.2-26.3 11.2-22.7 11.55-22.7Q12.55-23.95 13.85-24.9 15.15-25.85 16.65-26.38 18.15-26.9 19.8-26.9L19.8-26.9Q22.4-26.9 24.13-25.9 25.85-24.9 26.5-22.7L26.5-22.7 26.85-22.7Q27.95-23.95 29.25-24.9 30.55-25.85 32.13-26.38 33.7-26.9 35.35-26.9L35.35-26.9Q38.65-26.9 40.6-25.33 42.55-23.75 42.55-20.2L42.55-20.2Q42.55-19.4 42.45-18.55 42.35-17.7 42.15-16.75L42.15-16.75 39.15 0 32.25 0 35.1-16Q35.2-16.6 35.25-17.07 35.3-17.55 35.3-18L35.3-18Q35.3-19.15 34.93-19.83 34.55-20.5 33.85-20.83 33.15-21.15 32.2-21.15L32.2-21.15Q30.75-21.15 29.48-20.33 28.2-19.5 27.33-18.03 26.45-16.55 26.1-14.7L26.1-14.7 23.5 0 16.6 0 19.4-16Q19.5-16.6 19.58-17.1 19.65-17.6 19.65-18.05L19.65-18.05Q19.65-19.15 19.28-19.83 18.9-20.5 18.2-20.83 17.5-21.15 16.5-21.15L16.5-21.15Q15.1-21.15 13.83-20.33 12.55-19.5 11.68-18.03 10.8-16.55 10.45-14.7L10.45-14.7 7.85 0ZM54.2 0.6L54.2 0.6Q51.95 0.6 50.2-0.1 48.45-0.8 47.45-2.3 46.45-3.8 46.45-6.2L46.45-6.2Q46.45-7.05 46.6-7.98 46.75-8.9 46.9-9.9L46.9-9.9 49.8-26.3 56.75-26.3 53.95-10.5Q53.9-9.9 53.8-9.38 53.7-8.85 53.7-8.35L53.7-8.35Q53.7-7.2 54.12-6.5 54.55-5.8 55.32-5.48 56.1-5.15 57.1-5.15L57.1-5.15Q58.35-5.15 59.5-5.6 60.65-6.05 61.6-6.93 62.55-7.8 63.22-9.05 63.9-10.3 64.2-11.9L64.2-11.9 66.75-26.3 73.7-26.3 69.05 0 63.4 0 63.4-3.65 63.05-3.65Q62-2.4 60.6-1.43 59.2-0.45 57.57 0.08 55.95 0.6 54.2 0.6ZM86.75 0.6L86.75 0.6Q84.15 0.6 82.02 0.13 79.9-0.35 78.37-1.25 76.85-2.15 76.07-3.45 75.3-4.75 75.3-6.35L75.3-6.35Q75.3-6.9 75.4-7.45 75.5-8 75.6-8.35L75.6-8.35 82.3-8.35Q82.2-8.1 82.15-7.83 82.1-7.55 82.1-7.4L82.1-7.4Q82.1-6.35 82.77-5.7 83.45-5.05 84.55-4.75 85.65-4.45 86.95-4.45L86.95-4.45Q87.9-4.45 88.87-4.6 89.85-4.75 90.67-5.08 91.5-5.4 91.97-5.95 92.45-6.5 92.45-7.35L92.45-7.35Q92.45-8.15 91.92-8.68 91.4-9.2 90.52-9.58 89.65-9.95 88.5-10.28 87.35-10.6 86.1-10.9L86.1-10.9Q84.65-11.3 83.17-11.8 81.7-12.3 80.5-13.05 79.3-13.8 78.57-14.98 77.85-16.15 77.85-17.8L77.85-17.8Q77.85-20.1 78.8-21.8 79.75-23.5 81.45-24.65 83.15-25.8 85.37-26.38 87.6-26.95 90.2-26.95L90.2-26.95Q92.5-26.95 94.45-26.53 96.4-26.1 97.85-25.3 99.3-24.5 100.1-23.35 100.9-22.2 100.9-20.7L100.9-20.7Q100.9-20 100.77-19.38 100.65-18.75 100.6-18.6L100.6-18.6 93.95-18.6Q94-18.85 94.02-19.03 94.05-19.2 94.05-19.35L94.05-19.35Q94.05-20.15 93.55-20.73 93.05-21.3 92.15-21.58 91.25-21.85 89.9-21.85L89.9-21.85Q88.75-21.85 87.85-21.68 86.95-21.5 86.3-21.15 85.65-20.8 85.32-20.3 85-19.8 85-19.25L85-19.25Q85-18.35 85.82-17.82 86.65-17.3 88-16.95 89.35-16.6 90.9-16.1L90.9-16.1Q92.4-15.7 93.92-15.23 95.45-14.75 96.75-14 98.05-13.25 98.82-12.05 99.6-10.85 99.6-9L99.6-9Q99.6-6.3 98.57-4.48 97.55-2.65 95.75-1.53 93.95-0.4 91.65 0.1 89.35 0.6 86.75 0.6ZM115.49-30.15L108.49-30.15 109.59-36.15 116.54-36.15 115.49-30.15ZM110.24 0L103.29 0 107.94-26.3 114.89-26.3 110.24 0ZM129.14 0.6L129.14 0.6Q125.29 0.6 122.67-0.5 120.04-1.6 118.72-3.9 117.39-6.2 117.39-9.7L117.39-9.7Q117.39-11.05 117.54-12.45 117.69-13.85 117.99-15.15L117.99-15.15Q118.54-17.7 119.69-19.85 120.84-22 122.57-23.6 124.29-25.2 126.64-26.05 128.99-26.9 131.94-26.9L131.94-26.9Q135.44-26.9 137.94-25.95 140.44-25 141.81-23.13 143.19-21.25 143.19-18.55L143.19-18.55Q143.19-18 143.14-17.43 143.09-16.85 142.99-16.3L142.99-16.3 136.09-16.3Q136.14-16.65 136.17-16.98 136.19-17.3 136.19-17.6L136.19-17.6Q136.19-18.85 135.74-19.73 135.29-20.6 134.34-21.1 133.39-21.6 131.94-21.6L131.94-21.6Q129.89-21.6 128.49-20.65 127.09-19.7 126.24-17.98 125.39-16.25 124.94-13.95L124.94-13.95Q124.74-12.9 124.64-12.15 124.54-11.4 124.49-10.88 124.44-10.35 124.44-9.9L124.44-9.9Q124.44-8.2 124.94-7.05 125.44-5.9 126.52-5.35 127.59-4.8 129.19-4.8L129.19-4.8Q130.99-4.8 132.22-5.43 133.44-6.05 134.22-7.25 134.99-8.45 135.29-10.05L135.29-10.05 141.89-10.05Q141.34-6.6 139.64-4.2 137.94-1.8 135.29-0.6 132.64 0.6 129.14 0.6ZM154.64 9.4L154.64 9.4Q153.89 9.4 153.04 9.3 152.19 9.2 151.44 9.03 150.69 8.85 150.14 8.6L150.14 8.6 150.99 4 153.49 4Q154.74 4 155.41 3.38 156.09 2.75 156.29 1.55L156.29 1.55 160.24-20.95 156.44-20.95 157.44-26.3 161.19-26.3 161.69-29.2Q162.09-31.35 163.01-33.02 163.94-34.7 165.66-35.65 167.39-36.6 170.19-36.6L170.19-36.6Q170.99-36.6 171.81-36.5 172.64-36.4 173.39-36.23 174.14-36.05 174.64-35.85L174.64-35.85 173.79-31.25 171.34-31.25Q170.14-31.25 169.46-30.65 168.79-30.05 168.59-28.9L168.59-28.9 168.14-26.3 172.94-26.3 171.99-20.95 167.19-20.95 163.09 2.05Q162.74 4.05 161.84 5.75 160.94 7.45 159.21 8.43 157.49 9.4 154.64 9.4ZM183.53 0.6L183.53 0.6Q179.68 0.6 177.06-0.5 174.43-1.6 173.08-3.88 171.73-6.15 171.73-9.6L171.73-9.6Q171.73-10.6 171.83-11.63 171.93-12.65 172.13-13.7L172.13-13.7Q172.88-18.25 174.88-21.18 176.88-24.1 180.03-25.5 183.18-26.9 187.38-26.9L187.38-26.9Q191.28-26.9 193.93-25.8 196.58-24.7 197.93-22.43 199.28-20.15 199.28-16.65L199.28-16.65Q199.28-15.15 199.01-13.78 198.73-12.4 198.23-11.05L198.23-11.05Q197.28-7.05 195.36-4.48 193.43-1.9 190.51-0.65 187.58 0.6 183.53 0.6ZM184.03-4.8L184.03-4.8Q186.28-4.8 187.81-5.65 189.33-6.5 190.28-8.25 191.23-10 191.68-12.55L191.68-12.55Q191.88-13.65 191.98-14.35 192.08-15.05 192.11-15.53 192.13-16 192.13-16.45L192.13-16.45Q192.13-18.1 191.58-19.25 191.03-20.4 189.91-20.98 188.78-21.55 186.93-21.55L186.93-21.55Q184.68-21.55 183.16-20.65 181.63-19.75 180.71-18.03 179.78-16.3 179.28-13.75L179.28-13.75Q179.08-12.65 178.98-11.93 178.88-11.2 178.83-10.73 178.78-10.25 178.78-9.85L178.78-9.85Q178.78-8.2 179.33-7.08 179.88-5.95 181.06-5.38 182.23-4.8 184.03-4.8ZM208.68 0L201.73 0 206.38-26.3 211.98-26.3 211.98-22.2 212.28-22.2Q213.03-23.5 213.98-24.58 214.93-25.65 216.18-26.3 217.43-26.95 219.03-26.95L219.03-26.95Q219.98-26.95 220.68-26.78 221.38-26.6 221.73-26.45L221.73-26.45 220.68-20.15 218.48-20.15Q216.93-20.15 215.66-19.7 214.38-19.25 213.43-18.38 212.48-17.5 211.86-16.15 211.23-14.8 210.93-13.05L210.93-13.05 208.68 0ZM238.58 0.6L238.58 0.6Q235.93 0.6 233.9-0.5 231.88-1.6 230.8-3.78 229.73-5.95 229.73-9.15L229.73-9.15Q229.73-10.15 229.83-11.23 229.93-12.3 230.13-13.55L230.13-13.55Q230.93-18.15 232.65-21.13 234.38-24.1 236.9-25.5 239.43-26.9 242.58-26.9L242.58-26.9Q244.28-26.9 245.7-26.5 247.13-26.1 248.23-25.3 249.33-24.5 250.03-23.2L250.03-23.2 250.38-23.2 252.08-26.3 257.78-26.3 256.58-19.85Q256.23-17.9 255.88-15.98 255.53-14.05 255.23-12.35 254.93-10.65 254.68-9.3 254.43-7.95 254.3-7.1 254.18-6.25 254.18-6.05L254.18-6.05Q254.18-5.35 254.55-5.03 254.93-4.7 255.58-4.7L255.58-4.7 257.18-4.7 256.43-0.25Q255.78 0.05 254.75 0.33 253.73 0.6 252.43 0.6L252.43 0.6Q251.08 0.6 250.03 0.13 248.98-0.35 248.38-1.3L248.38-1.3Q248.13-1.75 247.95-2.33 247.78-2.9 247.73-3.55L247.73-3.55 247.38-3.55Q245.73-1.5 243.48-0.45 241.23 0.6 238.58 0.6ZM241.48-5.1L241.48-5.1Q242.78-5.1 243.93-5.63 245.08-6.15 245.95-7.15 246.83-8.15 247.48-9.58 248.13-11 248.43-12.75L248.43-12.75Q248.63-13.65 248.7-14.28 248.78-14.9 248.8-15.38 248.83-15.85 248.83-16.2L248.83-16.2Q248.83-17.85 248.35-18.95 247.88-20.05 246.88-20.63 245.88-21.2 244.33-21.2L244.33-21.2Q242.28-21.2 240.9-20.38 239.53-19.55 238.68-17.88 237.83-16.2 237.33-13.7L237.33-13.7Q237.13-12.65 237.03-11.93 236.93-11.2 236.88-10.68 236.83-10.15 236.83-9.75L236.83-9.75Q236.83-7.45 237.93-6.28 239.03-5.1 241.48-5.1ZM266.62 0L259.72 0 266.07-36.15 273.02-36.15 266.62 0ZM279.97 0L273.07 0 279.42-36.15 286.37-36.15 279.97 0ZM311.32 0.6L311.32 0.6Q308.57 0.6 306.49-0.43 304.42-1.45 303.42-3.55L303.42-3.55 303.07-3.55 301.92 0 296.22 0 302.57-36.15 309.52-36.15 307.27-23.4 307.57-23.4Q308.57-24.6 309.74-25.38 310.92-26.15 312.37-26.53 313.82-26.9 315.42-26.9L315.42-26.9Q318.17-26.9 320.14-25.8 322.12-24.7 323.19-22.55 324.27-20.4 324.27-17.15L324.27-17.15Q324.27-16.2 324.17-15.1 324.07-14 323.82-12.8L323.82-12.8Q323.07-8.2 321.32-5.23 319.57-2.25 317.02-0.83 314.47 0.6 311.32 0.6ZM309.62-5.1L309.62-5.1Q311.72-5.1 313.09-5.93 314.47-6.75 315.32-8.43 316.17-10.1 316.67-12.65L316.67-12.65Q316.87-13.7 316.97-14.43 317.07-15.15 317.12-15.65 317.17-16.15 317.17-16.55L317.17-16.55Q317.17-18.15 316.69-19.15 316.22-20.15 315.17-20.68 314.12-21.2 312.47-21.2L312.47-21.2Q311.12-21.2 309.97-20.68 308.82-20.15 307.94-19.18 307.07-18.2 306.44-16.78 305.82-15.35 305.52-13.55L305.52-13.55Q305.32-12.7 305.24-12.05 305.17-11.4 305.14-10.95 305.12-10.5 305.12-10.1L305.12-10.1Q305.12-8.55 305.59-7.4 306.07-6.25 307.07-5.68 308.07-5.1 309.62-5.1ZM328.91 9.4L328.91 9.4Q326.96 9.4 325.81 9.13 324.66 8.85 324.31 8.75L324.31 8.75 325.11 4 328.11 4Q329.41 4 330.51 3.53 331.61 3.05 332.46 2.18 333.31 1.3 333.91 0L333.91 0 328.26-26.3 335.26-26.3 337.56-14.6Q337.76-13.5 337.99-12.1 338.21-10.7 338.41-9.35 338.61-8 338.71-6.95L338.71-6.95 338.96-6.95Q339.31-7.75 339.69-8.68 340.06-9.6 340.49-10.58 340.91-11.55 341.31-12.45 341.71-13.35 342.06-14.1L342.06-14.1 347.96-26.3 355.21-26.3 342.06-1.25Q340.91 0.95 339.59 2.88 338.26 4.8 336.69 6.28 335.11 7.75 333.21 8.58 331.31 9.4 328.91 9.4ZM372.81 0.6L372.81 0.6Q370.16 0.6 368.13-0.5 366.11-1.6 365.03-3.78 363.96-5.95 363.96-9.15L363.96-9.15Q363.96-10.15 364.06-11.23 364.16-12.3 364.36-13.55L364.36-13.55Q365.16-18.15 366.88-21.13 368.61-24.1 371.13-25.5 373.66-26.9 376.81-26.9L376.81-26.9Q378.51-26.9 379.93-26.5 381.36-26.1 382.46-25.3 383.56-24.5 384.26-23.2L384.26-23.2 384.61-23.2 386.31-26.3 392.01-26.3 390.81-19.85Q390.46-17.9 390.11-15.98 389.76-14.05 389.46-12.35 389.16-10.65 388.91-9.3 388.66-7.95 388.53-7.1 388.41-6.25 388.41-6.05L388.41-6.05Q388.41-5.35 388.78-5.03 389.16-4.7 389.81-4.7L389.81-4.7 391.41-4.7 390.66-0.25Q390.01 0.05 388.98 0.33 387.96 0.6 386.66 0.6L386.66 0.6Q385.31 0.6 384.26 0.13 383.21-0.35 382.61-1.3L382.61-1.3Q382.36-1.75 382.18-2.33 382.01-2.9 381.96-3.55L381.96-3.55 381.61-3.55Q379.96-1.5 377.71-0.45 375.46 0.6 372.81 0.6ZM375.71-5.1L375.71-5.1Q377.01-5.1 378.16-5.63 379.31-6.15 380.18-7.15 381.06-8.15 381.71-9.58 382.36-11 382.66-12.75L382.66-12.75Q382.86-13.65 382.93-14.28 383.01-14.9 383.03-15.38 383.06-15.85 383.06-16.2L383.06-16.2Q383.06-17.85 382.58-18.95 382.11-20.05 381.11-20.63 380.11-21.2 378.56-21.2L378.56-21.2Q376.51-21.2 375.13-20.38 373.76-19.55 372.91-17.88 372.06-16.2 371.56-13.7L371.56-13.7Q371.36-12.65 371.26-11.93 371.16-11.2 371.11-10.68 371.06-10.15 371.06-9.75L371.06-9.75Q371.06-7.45 372.16-6.28 373.26-5.1 375.71-5.1ZM400.86 0L393.96 0 400.31-36.15 407.26-36.15 400.86 0ZM414.2 0L407.3 0 413.65-36.15 420.6-36.15 414.2 0Z" opacity="1" transform="matrix(1,0,0,1,0,0)" fill="#ffffff" class="slogan-text-1" data-fill-palette-color="secondary" id="text-1"></path></svg></g></svg></g></svg></g></svg></g><g transform="matrix(1,0,0,1,11.080116566798523,0)"><svg viewBox="0 0 373.35976686640294 373.3677038519126" height="373.3677038519126" width="373.35976686640294"><g><svg xmlns="http://www.w3.org/2000/svg" xmlns:xlink="http://www.w3.org/1999/xlink" version="1.1" x="0" y="0" viewBox="2.881 0 94.08099999999999 94.083" enable-background="new 0 0 100 94.165" xml:space="preserve" width="373.35976686640294" height="373.3677038519126" class="icon-icon-0" data-fill-palette-color="accent" id="icon-0"><path d="M49.921 9.134c10.124 0 19.643 3.943 26.803 11.102 7.16 7.16 11.102 16.679 11.102 26.805 0 10.125-3.942 19.645-11.102 26.804-7.16 7.159-16.68 11.102-26.803 11.102-10.125 0-19.644-3.942-26.803-11.102-7.16-7.159-11.103-16.679-11.103-26.804 0-10.126 3.943-19.646 11.103-26.805C30.278 13.077 39.796 9.134 49.921 9.134M49.921 0C23.942 0 2.881 21.061 2.881 47.042c0 25.979 21.061 47.041 47.041 47.041 25.979 0 47.04-21.062 47.04-47.041C96.961 21.061 75.9 0 49.921 0L49.921 0zM62.636 53.896c-2.7 0-5.128 1.164-6.808 3.017l-16.445-8.12c0.098-0.535 0.151-1.086 0.151-1.65 0-0.113-0.005-0.225-0.009-0.339l17.012-8.936c1.623 1.442 3.758 2.318 6.099 2.318 5.076 0 9.19-4.115 9.19-9.19 0-5.077-4.114-9.191-9.19-9.191s-9.19 4.114-9.19 9.191c0 0.378 0.025 0.751 0.07 1.119l-16.529 8.682c-1.673-1.752-4.03-2.845-6.644-2.845-5.076 0-9.191 4.116-9.191 9.191 0 5.076 4.115 9.19 9.191 9.19 2.138 0 4.104-0.731 5.665-1.955l17.44 8.61c-0.001 0.033-0.003 0.066-0.003 0.1 0 5.076 4.114 9.191 9.19 9.191s9.19-4.116 9.19-9.191C71.826 58.01 67.712 53.896 62.636 53.896z" fill="#ffffff" data-fill-palette-color="accent"></path></svg></g></svg></g><g></g></svg></g><defs></defs></svg><rect width="185.88964031514445" height="247.2" fill="none" stroke="none" visibility="hidden"></rect></g></svg></g></svg>